# xmcd
#
# Track frame offsets:
#	150
#	25939
#	38426
#	60748
#	86033
#	101699
#	118765
#	143228
#	169638
#	177823
#	188611
#	209836
#
# Disc length: 3078 seconds
#
# Revision: 0
# Processed by: cddbd v1.5.2PL0 Copyright (c) Steve Scherf et al.
# Submitted via: audiograbber 1.83.01
#
DISCID=a20c040c
DTITLE=Imagination - Collection - Cd1
DYEAR=1900
DGENRE=
TTITLE0=Just An Illusion
TTITLE1=Flashback
TTITLE2=Call On Me
TTITLE3=New Dimensions
TTITLE4=State Of Love
TTITLE5=Burning Up
TTITLE6=Work
TTITLE7=The Night We Loved
TTITLE8=Drum Solo
TTITLE9=Changes
TTITLE10=Private Hearts
TTITLE11=Need To Be Free
EXTD=
EXTT0=
EXTT1=
EXTT2=
EXTT3=
EXTT4=
EXTT5=
EXTT6=
EXTT7=
EXTT8=
EXTT9=
EXTT10=
EXTT11=
PLAYORDER=
